<?xml version="1.0" encoding="utf-8"?>
<!-- Generator: Adobe Illustrator 22.1.0, SVG Export Plug-In . SVG Version: 6.00 Build 0)  -->
<svg version="1.1" id="Capa_1" xmlns="http://www.w3.org/2000/svg" xmlns:xlink="http://www.w3.org/1999/xlink" x="0px" y="0px"
	 viewBox="0 0 96.9 96.9" style="enable-background:new 0 0 96.9 96.9;" xml:space="preserve">
<style type="text/css">
	.st0{fill:#FFFFFF;}
</style>
<g>
	<g>
		<path class="st0" d="M61.2,83.9H11.4V13h49.8c1.1,0,2-0.9,2-2V3.7c0-1.1-0.9-2-2-2H2c-1.1,0-2,0.9-2,2v89.6c0,1.1,0.9,2,2,2h59.2
			c1.1,0,2-0.9,2-2v-7.4C63.2,84.8,62.3,83.9,61.2,83.9z"/>
		<path class="st0" d="M96.4,47.1L69.4,20.1c-0.8-0.8-2.1-0.8-2.8,0l-6.4,6.4c-0.8,0.8-0.8,2,0,2.8l12.2,12.2H19.7c-1.1,0-2,0.9-2,2
			v9.9c0,1.1,0.9,2,2,2h52.6L60.2,67.6c-0.8,0.8-0.8,2,0,2.8l6.4,6.4c0.4,0.4,0.9,0.6,1.4,0.6c0.5,0,1-0.2,1.4-0.6l26.9-26.9
			c0.4-0.4,0.6-0.9,0.6-1.4C96.9,47.9,96.7,47.4,96.4,47.1z"/>
	</g>
</g>
</svg>
